<mxfile host="app.diagrams.net" modified="2023-06-26T08:55:13.224Z" agent="Mozilla/5.0 (Windows NT 10.0; Win64; x64) AppleWebKit/537.36 (KHTML, like Gecko) Chrome/103.0.0.0 Safari/537.36" etag="uRdDPH5N0hKA84D1Nx0r" version="21.5.0" type="device">
  <diagram name="Страница 1" id="A33Eieh7OQr_WD-xuFEV">
    <mxGraphModel dx="1050" dy="573" grid="1" gridSize="10" guides="1" tooltips="1" connect="1" arrows="1" fold="1" page="1" pageScale="1" pageWidth="827" pageHeight="1169" math="0" shadow="0">
      <root>
        <mxCell id="0" />
        <mxCell id="1" parent="0" />
        <mxCell id="CsdWpNAyHBrEG0wqlEQs-1" value="Jautajums" style="swimlane;fontStyle=0;childLayout=stackLayout;horizontal=1;startSize=26;fillColor=none;horizontalStack=0;resizeParent=1;resizeParentMax=0;resizeLast=0;collapsible=1;marginBottom=0;whiteSpace=wrap;html=1;" vertex="1" parent="1">
          <mxGeometry x="60" y="130" width="290" height="210" as="geometry" />
        </mxCell>
        <mxCell id="CsdWpNAyHBrEG0wqlEQs-4" value="~ bev : package&lt;br&gt;+ jautajums : String&lt;br&gt;+ atbVarianti : String[]&lt;br&gt;+ pareizaAtb : char&lt;br&gt;&lt;br&gt;&lt;br&gt;+ Jautajums(jautajums : String, atbVarianti : String[], pareizaAtb : char) : void&lt;br&gt;+ getJautajums() : String&lt;br&gt;+ getAtbildesVarianti() : String[]&lt;br&gt;+ getPareizaAtbilde() : char" style="text;strokeColor=none;fillColor=none;align=left;verticalAlign=top;spacingLeft=4;spacingRight=4;overflow=hidden;rotatable=0;points=[[0,0.5],[1,0.5]];portConstraint=eastwest;whiteSpace=wrap;html=1;" vertex="1" parent="CsdWpNAyHBrEG0wqlEQs-1">
          <mxGeometry y="26" width="290" height="184" as="geometry" />
        </mxCell>
        <mxCell id="CsdWpNAyHBrEG0wqlEQs-7" value="" style="endArrow=none;html=1;rounded=0;exitX=-0.001;exitY=0.416;exitDx=0;exitDy=0;exitPerimeter=0;" edge="1" parent="CsdWpNAyHBrEG0wqlEQs-1" source="CsdWpNAyHBrEG0wqlEQs-4">
          <mxGeometry width="50" height="50" relative="1" as="geometry">
            <mxPoint y="111" as="sourcePoint" />
            <mxPoint x="290" y="103" as="targetPoint" />
          </mxGeometry>
        </mxCell>
        <mxCell id="CsdWpNAyHBrEG0wqlEQs-9" value="Tests" style="swimlane;fontStyle=0;childLayout=stackLayout;horizontal=1;startSize=26;fillColor=none;horizontalStack=0;resizeParent=1;resizeParentMax=0;resizeLast=0;collapsible=1;marginBottom=0;whiteSpace=wrap;html=1;" vertex="1" parent="1">
          <mxGeometry x="440" y="145" width="290" height="180" as="geometry" />
        </mxCell>
        <mxCell id="CsdWpNAyHBrEG0wqlEQs-10" value="~ bev : package&lt;br&gt;+ jautajumi : Jautajums[]&lt;br&gt;+ pareizasAtbSkaits : int&lt;br&gt;+ nepareizasAtb : StringBuilder&lt;br&gt;&lt;br&gt;&lt;br&gt;+ Tests(jautajumi : Jautajums[]) : void&lt;br&gt;+ izpilditTestu() : void&lt;br&gt;+ paraditRezultatu() : void" style="text;strokeColor=none;fillColor=none;align=left;verticalAlign=top;spacingLeft=4;spacingRight=4;overflow=hidden;rotatable=0;points=[[0,0.5],[1,0.5]];portConstraint=eastwest;whiteSpace=wrap;html=1;" vertex="1" parent="CsdWpNAyHBrEG0wqlEQs-9">
          <mxGeometry y="26" width="290" height="154" as="geometry" />
        </mxCell>
        <mxCell id="CsdWpNAyHBrEG0wqlEQs-11" value="" style="endArrow=none;html=1;rounded=0;exitX=0;exitY=0.5;exitDx=0;exitDy=0;" edge="1" parent="CsdWpNAyHBrEG0wqlEQs-9" source="CsdWpNAyHBrEG0wqlEQs-10">
          <mxGeometry width="50" height="50" relative="1" as="geometry">
            <mxPoint y="111" as="sourcePoint" />
            <mxPoint x="290" y="103" as="targetPoint" />
          </mxGeometry>
        </mxCell>
        <mxCell id="CsdWpNAyHBrEG0wqlEQs-12" value="Main" style="swimlane;fontStyle=0;childLayout=stackLayout;horizontal=1;startSize=26;fillColor=none;horizontalStack=0;resizeParent=1;resizeParentMax=0;resizeLast=0;collapsible=1;marginBottom=0;whiteSpace=wrap;html=1;" vertex="1" parent="1">
          <mxGeometry x="431" y="470" width="290" height="100" as="geometry" />
        </mxCell>
        <mxCell id="CsdWpNAyHBrEG0wqlEQs-13" value="~ bev : package&lt;br&gt;&lt;br&gt;&lt;br&gt;+ main (args : String[]) : void" style="text;strokeColor=none;fillColor=none;align=left;verticalAlign=top;spacingLeft=4;spacingRight=4;overflow=hidden;rotatable=0;points=[[0,0.5],[1,0.5]];portConstraint=eastwest;whiteSpace=wrap;html=1;" vertex="1" parent="CsdWpNAyHBrEG0wqlEQs-12">
          <mxGeometry y="26" width="290" height="74" as="geometry" />
        </mxCell>
        <mxCell id="CsdWpNAyHBrEG0wqlEQs-14" value="" style="endArrow=none;html=1;rounded=0;" edge="1" parent="CsdWpNAyHBrEG0wqlEQs-12">
          <mxGeometry width="50" height="50" relative="1" as="geometry">
            <mxPoint y="61" as="sourcePoint" />
            <mxPoint x="290" y="60" as="targetPoint" />
          </mxGeometry>
        </mxCell>
        <mxCell id="CsdWpNAyHBrEG0wqlEQs-16" value="" style="endArrow=none;html=1;rounded=0;exitX=1.006;exitY=0.418;exitDx=0;exitDy=0;exitPerimeter=0;entryX=-0.004;entryY=0.408;entryDx=0;entryDy=0;entryPerimeter=0;" edge="1" parent="1" source="CsdWpNAyHBrEG0wqlEQs-4" target="CsdWpNAyHBrEG0wqlEQs-10">
          <mxGeometry width="50" height="50" relative="1" as="geometry">
            <mxPoint x="360" y="220" as="sourcePoint" />
            <mxPoint x="410" y="170" as="targetPoint" />
          </mxGeometry>
        </mxCell>
        <mxCell id="CsdWpNAyHBrEG0wqlEQs-17" value="" style="endArrow=none;html=1;rounded=0;exitX=0.5;exitY=0;exitDx=0;exitDy=0;entryX=0.47;entryY=1;entryDx=0;entryDy=0;entryPerimeter=0;" edge="1" parent="1" source="CsdWpNAyHBrEG0wqlEQs-12" target="CsdWpNAyHBrEG0wqlEQs-10">
          <mxGeometry width="50" height="50" relative="1" as="geometry">
            <mxPoint x="410" y="440" as="sourcePoint" />
            <mxPoint x="460" y="390" as="targetPoint" />
          </mxGeometry>
        </mxCell>
        <mxCell id="CsdWpNAyHBrEG0wqlEQs-18" value="" style="endArrow=none;html=1;rounded=0;entryX=0.459;entryY=1.001;entryDx=0;entryDy=0;entryPerimeter=0;" edge="1" parent="1" target="CsdWpNAyHBrEG0wqlEQs-4">
          <mxGeometry width="50" height="50" relative="1" as="geometry">
            <mxPoint x="430" y="530" as="sourcePoint" />
            <mxPoint x="330" y="430" as="targetPoint" />
            <Array as="points">
              <mxPoint x="193" y="530" />
            </Array>
          </mxGeometry>
        </mxCell>
      </root>
    </mxGraphModel>
  </diagram>
</mxfile>
